<svg xmlns="http://www.w3.org/2000/svg">
  <defs>

      <symbol id="logo" viewBox="0 0 100 115">
        <title>Toolbox</title>
        <g>
        	<polygon fill="#E12027" points="50,0 100,28.751 100,86.25 50,115 0,86.25 0,28.751 50,0 	"/>
        	<path fill="#FFFFFF" d="M53.849,86.248c-7.872,0-13.204-3.12-13.204-13.573V51.26l-10.667,0.002L35.227,40.3h5.418V28.751h12.868
        		V40.3V51.26v19.306c0,2.953,1.269,4.385,4.146,4.385c2.369,0,4.487-0.591,6.35-1.601v10.284
        		C61.299,85.236,58.166,86.248,53.849,86.248"/>
        	<g>
        		<polygon fill="#FFFFFF" points="66.741,51.091 56.076,51.091 56.076,40.468 66.741,40.468 66.741,51.091 		"/>
        	</g>
        </g>
      </symbol>

      <symbol id="wordmark" viewBox="0 0 200 100">
        <title>Logistics Toolbox</title>
        <g>
        	<polygon fill="#E12027" points="41.809,2 83.618,26.139 83.618,74.414 41.809,98.553 0,74.414 0,26.139 41.809,2 	"/>
        	<path fill="#FFFFFF" d="M45.027,74.412c-6.582,0-11.041-2.619-11.041-11.396V45.037l-8.919,0.002l4.389-9.204h4.531v-9.696h10.759
        		v9.696v9.202v16.209c0,2.479,1.062,3.682,3.467,3.682c1.982,0,3.752-0.496,5.31-1.346v8.636
        		C51.256,73.562,48.637,74.412,45.027,74.412"/>
        	<polygon fill="#FFFFFF" points="55.808,44.896 46.89,44.896 46.89,35.976 55.808,35.976 55.808,44.896 	"/>
        	<polygon fill="#353434" points="94.736,28.122 98.667,28.122 98.667,46.993 94.736,46.993 94.736,28.122 	"/>
        	<path fill="#353434" d="M112.302,40.143v-0.052c0-2.043-1.474-3.827-3.644-3.827c-2.249,0-3.593,1.733-3.593,3.775v0.052
        		c0,2.042,1.473,3.825,3.642,3.825C110.96,43.917,112.302,42.184,112.302,40.143 M101.188,40.143v-0.052
        		c0-3.981,3.205-7.213,7.52-7.213c4.294,0,7.474,3.18,7.474,7.161v0.052c0,3.981-3.206,7.211-7.522,7.211
        		C104.366,47.302,101.188,44.123,101.188,40.143"/>
        	<path fill="#353434" d="M129.18,39.394v-0.052c0-1.886-1.475-3.207-3.389-3.207c-1.912,0-3.358,1.321-3.358,3.207v0.052
        		c0,1.913,1.446,3.205,3.358,3.205C127.705,42.598,129.18,41.281,129.18,39.394 M119.199,49.733l1.344-2.947
        		c1.422,0.802,2.846,1.266,4.68,1.266c2.691,0,3.957-1.292,3.957-3.772v-0.673c-1.165,1.395-2.433,2.25-4.525,2.25
        		c-3.233,0-6.152-2.354-6.152-6.463v-0.052c0-4.136,2.975-6.463,6.152-6.463c2.145,0,3.414,0.904,4.471,2.068v-1.809h3.931v10.728
        		c0,2.482-0.597,4.291-1.758,5.455c-1.291,1.291-3.283,1.861-5.971,1.861C123.077,51.182,120.957,50.664,119.199,49.733"/>
        	<path fill="#353434" d="M136.143,33.137h3.931v13.856h-3.931V33.137L136.143,33.137z M136.038,28.122h4.136v3.49h-4.136V28.122
        		L136.038,28.122z"/>
        	<path fill="#353434" d="M142.628,45.157l1.681-2.584c1.499,1.086,3.073,1.654,4.369,1.654c1.137,0,1.654-0.414,1.654-1.034v-0.052
        		c0-0.853-1.345-1.136-2.87-1.602c-1.939-0.568-4.137-1.473-4.137-4.163v-0.051c0-2.817,2.273-4.395,5.067-4.395
        		c1.757,0,3.669,0.596,5.168,1.603l-1.499,2.715c-1.371-0.802-2.741-1.293-3.747-1.293c-0.958,0-1.446,0.415-1.446,0.957v0.051
        		c0,0.776,1.315,1.137,2.817,1.654c1.937,0.647,4.186,1.577,4.186,4.111v0.052c0,3.077-2.299,4.473-5.298,4.473
        		C146.635,47.253,144.462,46.605,142.628,45.157"/>
        	<path fill="#353434" d="M156.954,43.063v-6.565H155.3v-3.361h1.654v-3.541h3.931v3.541h3.258v3.361h-3.258v5.92
        		c0,0.904,0.388,1.343,1.266,1.343c0.723,0,1.37-0.182,1.938-0.491v3.154c-0.826,0.491-1.784,0.8-3.1,0.8
        		C158.583,47.225,156.954,46.271,156.954,43.063"/>
        	<path fill="#353434" d="M167.305,33.137h3.93v13.856h-3.93V33.137L167.305,33.137z M167.2,28.122h4.137v3.49H167.2V28.122
        		L167.2,28.122z"/>
        	<path fill="#353434" d="M173.595,40.143v-0.052c0-3.957,3.024-7.213,7.265-7.213c2.607,0,4.236,0.88,5.531,2.327l-2.406,2.584
        		c-0.876-0.93-1.755-1.525-3.153-1.525c-1.966,0-3.36,1.733-3.36,3.775v0.052c0,2.12,1.37,3.825,3.514,3.825
        		c1.319,0,2.227-0.569,3.185-1.474l2.298,2.328c-1.346,1.473-2.896,2.532-5.661,2.532C176.644,47.302,173.595,44.098,173.595,40.143
        		"/>
        	<path fill="#353434" d="M188.325,45.157l1.681-2.584c1.5,1.086,3.075,1.654,4.37,1.654c1.136,0,1.653-0.414,1.653-1.034v-0.052
        		c0-0.853-1.344-1.136-2.87-1.602c-1.938-0.568-4.136-1.473-4.136-4.163v-0.051c0-2.817,2.272-4.395,5.067-4.395
        		c1.756,0,3.668,0.596,5.168,1.603l-1.5,2.715c-1.37-0.802-2.741-1.293-3.746-1.293c-0.958,0-1.446,0.415-1.446,0.957v0.051
        		c0,0.776,1.316,1.137,2.816,1.654c1.937,0.647,4.186,1.577,4.186,4.111v0.052c0,3.077-2.298,4.473-5.297,4.473
        		C192.332,47.253,190.16,46.605,188.325,45.157"/>
        	<path fill="#353434" d="M96.38,68.209v-6.565h-1.655v-3.361h1.655v-3.541h3.929v3.541h3.26v3.361h-3.26v5.919
        		c0,0.904,0.39,1.344,1.268,1.344c0.723,0,1.371-0.182,1.939-0.49v3.153c-0.827,0.49-1.785,0.801-3.101,0.801
        		C98.01,72.37,96.38,71.415,96.38,68.209"/>
        	<path fill="#353434" d="M116.901,65.288v-0.053c0-2.043-1.473-3.826-3.646-3.826c-2.249,0-3.593,1.733-3.593,3.775v0.051
        		c0,2.043,1.474,3.825,3.642,3.825C115.558,69.061,116.901,67.328,116.901,65.288 M105.786,65.288v-0.053
        		c0-3.981,3.204-7.213,7.519-7.213c4.294,0,7.475,3.18,7.475,7.162v0.051c0,3.981-3.209,7.212-7.523,7.212
        		C108.964,72.447,105.786,69.268,105.786,65.288"/>
        	<path fill="#353434" d="M134.07,65.288v-0.053c0-2.043-1.471-3.826-3.644-3.826c-2.248,0-3.592,1.733-3.592,3.775v0.051
        		c0,2.043,1.473,3.825,3.644,3.825C132.729,69.061,134.07,67.328,134.07,65.288 M122.957,65.288v-0.053
        		c0-3.981,3.205-7.213,7.521-7.213c4.294,0,7.472,3.18,7.472,7.162v0.051c0,3.981-3.207,7.212-7.523,7.212
        		C126.137,72.447,122.957,69.268,122.957,65.288"/>
        	<polygon fill="#353434" points="141.128,53.266 145.059,53.266 145.059,72.138 141.128,72.138 141.128,53.266 	"/>
        	<path fill="#353434" d="M158.862,65.235v-0.051c0-2.301-1.55-3.826-3.388-3.826c-1.834,0-3.36,1.525-3.36,3.826v0.051
        		c0,2.301,1.526,3.825,3.36,3.825C157.312,69.061,158.862,67.562,158.862,65.235 M152.166,70.328v1.81h-3.927V53.267h3.927v7.006
        		c0.958-1.292,2.276-2.25,4.32-2.25c3.229,0,6.305,2.533,6.305,7.162v0.051c0,4.628-3.026,7.16-6.305,7.16
        		C154.388,72.396,153.097,71.439,152.166,70.328"/>
        	<path fill="#353434" d="M176.144,65.288v-0.053c0-2.043-1.475-3.826-3.647-3.826c-2.249,0-3.593,1.733-3.593,3.775v0.051
        		c0,2.043,1.476,3.825,3.643,3.825C174.798,69.061,176.144,67.328,176.144,65.288 M165.026,65.288v-0.053
        		c0-3.981,3.204-7.213,7.52-7.213c4.293,0,7.474,3.18,7.474,7.162v0.051c0,3.981-3.207,7.212-7.523,7.212
        		C168.204,72.447,165.026,69.268,165.026,65.288"/>
        	<polygon fill="#353434" points="185.664,65.106 180.984,58.282 185.197,58.282 187.784,62.315 190.394,58.282 194.505,58.282
        		189.827,65.028 194.71,72.138 190.498,72.138 187.704,67.82 184.914,72.138 180.803,72.138 185.664,65.106 	"/>
        </g>
      </sybmol>


  </defs>
</svg>
